<svg xmlns="http://www.w3.org/2000/svg" viewBox="0 0 1200 680">
  <defs>
    <linearGradient id="sky" x1="0" y1="0" x2="0" y2="1">
      <stop offset="0" stop-color="#eff6ff"/>
      <stop offset="1" stop-color="#dae8f8"/>
    </linearGradient>
  </defs>
  <rect width="1200" height="680" fill="url(#sky)"/>
  <rect x="80" y="90" width="1040" height="500" rx="24" fill="#ffffff" stroke="#d0ddec" stroke-width="8"/>
  <rect x="130" y="150" width="420" height="360" rx="12" fill="#f8fbff" stroke="#d6e3f1"/>
  <rect x="620" y="150" width="430" height="160" rx="12" fill="#eef5fc"/>
  <rect x="620" y="330" width="430" height="180" rx="12" fill="#f8fbff" stroke="#d6e3f1"/>
  <g transform="translate(330 430)">
    <ellipse cx="0" cy="72" rx="142" ry="22" fill="#dce7f4"/>
    <path d="M-130 4c0-66 54-112 117-112h26c63 0 117 46 117 112v43c0 24-19 43-43 43h-174c-24 0-43-19-43-43z" fill="#fff" stroke="#d7e4f1" stroke-width="6"/>
    <path d="M-93 -42l20-56 44 34z" fill="#fff" stroke="#d7e4f1" stroke-width="6"/>
    <path d="M93 -42l-20-56-44 34z" fill="#fff" stroke="#d7e4f1" stroke-width="6"/>
    <ellipse cx="-39" cy="-2" rx="18" ry="12" fill="#53dcff"/>
    <ellipse cx="39" cy="-2" rx="18" ry="12" fill="#53dcff"/>
    <rect x="-17" y="75" width="34" height="12" rx="6" fill="#2f4d65"/>
    <circle cx="0" cy="81" r="3" fill="#4ff0ca"/>
  </g>
  <g transform="translate(760 422)">
    <rect x="0" y="0" width="230" height="56" rx="10" fill="#e8f1fc" stroke="#c6d9ef"/>
    <text x="16" y="24" font-family="Avenir Next, Segoe UI, Arial, sans-serif" font-size="16" fill="#274761">Owner Reset Sequence</text>
    <text x="16" y="46" font-family="Avenir Next, Segoe UI, Arial, sans-serif" font-size="14" fill="#4a6a80">Comfort Mode + Home Profile Refresh</text>
  </g>
  <text x="122" y="130" font-family="Avenir Next, Segoe UI, Arial, sans-serif" font-size="24" font-weight="700" fill="#1b3449">In-home Companion Scene</text>
  <text x="626" y="130" font-family="Avenir Next, Segoe UI, Arial, sans-serif" font-size="24" font-weight="700" fill="#1b3449">Guardian Module Overview</text>
</svg>
