<svg xmlns="http://www.w3.org/2000/svg" viewBox="0 0 1600 900" preserveAspectRatio="xMidYMid slice">
  <defs>
    <linearGradient id="h" x1="0" y1="0" x2="0" y2="1">
      <stop offset="0%" stop-color="#ff4fa5" stop-opacity=".55"/>
      <stop offset="38%" stop-color="#62f5ff" stop-opacity=".28"/>
      <stop offset="100%" stop-color="#000000" stop-opacity="0"/>
    </linearGradient>
    <linearGradient id="sun" x1="0" y1="0" x2="0" y2="1">
      <stop offset="0%" stop-color="#ffe29d"/>
      <stop offset="50%" stop-color="#ff9bcf"/>
      <stop offset="100%" stop-color="#ff4fa5"/>
    </linearGradient>
  </defs>
  <rect width="1600" height="900" fill="url(#h)"/>
  <circle cx="800" cy="265" r="155" fill="url(#sun)" opacity=".9"/>
  <g opacity=".5" stroke="#62f5ff" stroke-width="1">
    <line x1="0" y1="520" x2="1600" y2="520"/>
    <line x1="0" y1="560" x2="1600" y2="560"/>
    <line x1="0" y1="600" x2="1600" y2="600"/>
    <line x1="0" y1="640" x2="1600" y2="640"/>
    <line x1="0" y1="680" x2="1600" y2="680"/>
    <line x1="0" y1="720" x2="1600" y2="720"/>
    <line x1="0" y1="760" x2="1600" y2="760"/>
    <line x1="0" y1="800" x2="1600" y2="800"/>
    <line x1="0" y1="840" x2="1600" y2="840"/>
    <line x1="100" y1="520" x2="100" y2="900"/>
    <line x1="250" y1="520" x2="250" y2="900"/>
    <line x1="400" y1="520" x2="400" y2="900"/>
    <line x1="550" y1="520" x2="550" y2="900"/>
    <line x1="700" y1="520" x2="700" y2="900"/>
    <line x1="850" y1="520" x2="850" y2="900"/>
    <line x1="1000" y1="520" x2="1000" y2="900"/>
    <line x1="1150" y1="520" x2="1150" y2="900"/>
    <line x1="1300" y1="520" x2="1300" y2="900"/>
    <line x1="1450" y1="520" x2="1450" y2="900"/>
  </g>
</svg>
