<svg xmlns="http://www.w3.org/2000/svg" viewBox="0 0 1200 1200" role="img" aria-label="">
  <defs>
    <linearGradient id="bg" x1="0" y1="0" x2="1" y2="1">
      <stop offset="0%" stop-color="#05041c"/>
      <stop offset="45%" stop-color="#2b0b66"/>
      <stop offset="100%" stop-color="#0f2b57"/>
    </linearGradient>
    <radialGradient id="burst" cx="52%" cy="46%" r="48%">
      <stop offset="0%" stop-color="#fff3ad" stop-opacity="0.9"/>
      <stop offset="30%" stop-color="#ff7ff7" stop-opacity="0.8"/>
      <stop offset="60%" stop-color="#6be8ff" stop-opacity="0.45"/>
      <stop offset="100%" stop-color="#6be8ff" stop-opacity="0"/>
    </radialGradient>
    <filter id="glow">
      <feGaussianBlur stdDeviation="7" result="b"/>
      <feMerge>
        <feMergeNode in="b"/>
        <feMergeNode in="SourceGraphic"/>
      </feMerge>
    </filter>
    <linearGradient id="dolphin" x1="0" y1="0" x2="1" y2="1">
      <stop offset="0%" stop-color="#6df6ff"/>
      <stop offset="55%" stop-color="#8ca0ff"/>
      <stop offset="100%" stop-color="#ff88f0"/>
    </linearGradient>
  </defs>
  <rect width="1200" height="1200" fill="url(#bg)"/>
  <circle cx="620" cy="510" r="390" fill="url(#burst)"/>
  <g fill="#fff" opacity="0.95">
    <polygon points="155,145 172,184 214,202 173,218 156,258 138,218 95,201 138,184"/>
    <polygon points="980,165 992,191 1020,204 992,216 980,243 969,217 940,204 968,191"/>
    <polygon points="1065,345 1074,365 1095,374 1074,382 1065,403 1056,382 1035,374 1056,365"/>
    <polygon points="150,365 159,385 181,394 159,403 150,424 141,403 119,394 141,385"/>
  </g>
  <g filter="url(#glow)" opacity="0.95">
    <path d="M220 580c105-155 265-147 348-89 96 66 229 44 324-40-20 100-86 182-203 223-156 55-350-6-469-94z" fill="url(#dolphin)"/>
    <path d="M460 660c66-90 167-81 228-40 62 42 136 30 200-16-22 61-71 111-145 135-107 34-218-4-283-79z" fill="url(#dolphin)" opacity="0.88"/>
  </g>
  <g filter="url(#glow)" fill="#ff86ec" opacity="0.83">
    <circle cx="248" cy="522" r="6"/><circle cx="305" cy="474" r="5"/><circle cx="380" cy="458" r="7"/>
    <circle cx="686" cy="466" r="5"/><circle cx="770" cy="505" r="6"/><circle cx="865" cy="488" r="7"/>
    <circle cx="970" cy="574" r="6"/><circle cx="1048" cy="540" r="5"/>
  </g>
  <g stroke="#6ff0ff" stroke-width="2.5" opacity="0.54">
    <path d="M0 930h1200"/><path d="M0 980h1200"/><path d="M0 1030h1200"/><path d="M0 1080h1200"/>
  </g>
</svg>
